# Tiled2Unity generated file. Do not modify by hand.
# Wavefront file for 'homeScreenCTF_mesh_0002.obj'

# Vertices (Count = 640)
v -19 -1 0
v -20 -1 0
v -20 0 0
v -19 0 0
v 0 -1 0
v -1 -1 0
v -1 0 0
v 0 0 0
v -19 -2 0
v -20 -2 0
v -20 -1 0
v -19 -1 0
v 0 -2 0
v -1 -2 0
v -1 -1 0
v 0 -1 0
v -19 -3 0
v -20 -3 0
v -20 -2 0
v -19 -2 0
v -15 -3 0
v -16 -3 0
v -16 -2 0
v -15 -2 0
v -14 -3 0
v -15 -3 0
v -15 -2 0
v -14 -2 0
v -10 -3 0
v -11 -3 0
v -11 -2 0
v -10 -2 0
v -9 -3 0
v -10 -3 0
v -10 -2 0
v -9 -2 0
v -5 -3 0
v -6 -3 0
v -6 -2 0
v -5 -2 0
v -4 -3 0
v -5 -3 0
v -5 -2 0
v -4 -2 0
v 0 -3 0
v -1 -3 0
v -1 -2 0
v 0 -2 0
v -19 -4 0
v -20 -4 0
v -20 -3 0
v -19 -3 0
v -15 -4 0
v -16 -4 0
v -16 -3 0
v -15 -3 0
v -14 -4 0
v -15 -4 0
v -15 -3 0
v -14 -3 0
v -10 -4 0
v -11 -4 0
v -11 -3 0
v -10 -3 0
v -9 -4 0
v -10 -4 0
v -10 -3 0
v -9 -3 0
v -5 -4 0
v -6 -4 0
v -6 -3 0
v -5 -3 0
v -4 -4 0
v -5 -4 0
v -5 -3 0
v -4 -3 0
v 0 -4 0
v -1 -4 0
v -1 -3 0
v 0 -3 0
v -19 -5 0
v -20 -5 0
v -20 -4 0
v -19 -4 0
v -15 -5 0
v -16 -5 0
v -16 -4 0
v -15 -4 0
v -14 -5 0
v -15 -5 0
v -15 -4 0
v -14 -4 0
v -13 -5 0
v -14 -5 0
v -14 -4 0
v -13 -4 0
v -12 -5 0
v -13 -5 0
v -13 -4 0
v -12 -4 0
v -11 -5 0
v -12 -5 0
v -12 -4 0
v -11 -4 0
v -10 -5 0
v -11 -5 0
v -11 -4 0
v -10 -4 0
v 0 -5 0
v -1 -5 0
v -1 -4 0
v 0 -4 0
v -19 -6 0
v -20 -6 0
v -20 -5 0
v -19 -5 0
v -16 -6 0
v -17 -6 0
v -17 -5 0
v -16 -5 0
v -15 -6 0
v -16 -6 0
v -16 -5 0
v -15 -5 0
v -14 -6 0
v -15 -6 0
v -15 -5 0
v -14 -5 0
v -13 -6 0
v -14 -6 0
v -14 -5 0
v -13 -5 0
v -12 -6 0
v -13 -6 0
v -13 -5 0
v -12 -5 0
v -11 -6 0
v -12 -6 0
v -12 -5 0
v -11 -5 0
v -10 -6 0
v -11 -6 0
v -11 -5 0
v -10 -5 0
v -9 -6 0
v -10 -6 0
v -10 -5 0
v -9 -5 0
v -8 -6 0
v -9 -6 0
v -9 -5 0
v -8 -5 0
v -7 -6 0
v -8 -6 0
v -8 -5 0
v -7 -5 0
v -6 -6 0
v -7 -6 0
v -7 -5 0
v -6 -5 0
v -5 -6 0
v -6 -6 0
v -6 -5 0
v -5 -5 0
v -4 -6 0
v -5 -6 0
v -5 -5 0
v -4 -5 0
v -3 -6 0
v -4 -6 0
v -4 -5 0
v -3 -5 0
v 0 -6 0
v -1 -6 0
v -1 -5 0
v 0 -5 0
v -19 -7 0
v -20 -7 0
v -20 -6 0
v -19 -6 0
v -16 -7 0
v -17 -7 0
v -17 -6 0
v -16 -6 0
v -15 -7 0
v -16 -7 0
v -16 -6 0
v -15 -6 0
v -14 -7 0
v -15 -7 0
v -15 -6 0
v -14 -6 0
v -13 -7 0
v -14 -7 0
v -14 -6 0
v -13 -6 0
v -12 -7 0
v -13 -7 0
v -13 -6 0
v -12 -6 0
v -11 -7 0
v -12 -7 0
v -12 -6 0
v -11 -6 0
v -10 -7 0
v -11 -7 0
v -11 -6 0
v -10 -6 0
v -9 -7 0
v -10 -7 0
v -10 -6 0
v -9 -6 0
v -8 -7 0
v -9 -7 0
v -9 -6 0
v -8 -6 0
v -7 -7 0
v -8 -7 0
v -8 -6 0
v -7 -6 0
v -6 -7 0
v -7 -7 0
v -7 -6 0
v -6 -6 0
v -5 -7 0
v -6 -7 0
v -6 -6 0
v -5 -6 0
v -4 -7 0
v -5 -7 0
v -5 -6 0
v -4 -6 0
v -3 -7 0
v -4 -7 0
v -4 -6 0
v -3 -6 0
v 0 -7 0
v -1 -7 0
v -1 -6 0
v 0 -6 0
v -19 -8 0
v -20 -8 0
v -20 -7 0
v -19 -7 0
v -16 -8 0
v -17 -8 0
v -17 -7 0
v -16 -7 0
v -15 -8 0
v -16 -8 0
v -16 -7 0
v -15 -7 0
v -14 -8 0
v -15 -8 0
v -15 -7 0
v -14 -7 0
v -13 -8 0
v -14 -8 0
v -14 -7 0
v -13 -7 0
v -12 -8 0
v -13 -8 0
v -13 -7 0
v -12 -7 0
v -11 -8 0
v -12 -8 0
v -12 -7 0
v -11 -7 0
v -10 -8 0
v -11 -8 0
v -11 -7 0
v -10 -7 0
v -9 -8 0
v -10 -8 0
v -10 -7 0
v -9 -7 0
v -8 -8 0
v -9 -8 0
v -9 -7 0
v -8 -7 0
v -7 -8 0
v -8 -8 0
v -8 -7 0
v -7 -7 0
v -6 -8 0
v -7 -8 0
v -7 -7 0
v -6 -7 0
v -5 -8 0
v -6 -8 0
v -6 -7 0
v -5 -7 0
v -4 -8 0
v -5 -8 0
v -5 -7 0
v -4 -7 0
v -3 -8 0
v -4 -8 0
v -4 -7 0
v -3 -7 0
v 0 -8 0
v -1 -8 0
v -1 -7 0
v 0 -7 0
v -19 -9 0
v -20 -9 0
v -20 -8 0
v -19 -8 0
v -16 -9 0
v -17 -9 0
v -17 -8 0
v -16 -8 0
v -15 -9 0
v -16 -9 0
v -16 -8 0
v -15 -8 0
v -14 -9 0
v -15 -9 0
v -15 -8 0
v -14 -8 0
v -13 -9 0
v -14 -9 0
v -14 -8 0
v -13 -8 0
v -12 -9 0
v -13 -9 0
v -13 -8 0
v -12 -8 0
v -11 -9 0
v -12 -9 0
v -12 -8 0
v -11 -8 0
v -10 -9 0
v -11 -9 0
v -11 -8 0
v -10 -8 0
v -9 -9 0
v -10 -9 0
v -10 -8 0
v -9 -8 0
v -8 -9 0
v -9 -9 0
v -9 -8 0
v -8 -8 0
v -7 -9 0
v -8 -9 0
v -8 -8 0
v -7 -8 0
v -6 -9 0
v -7 -9 0
v -7 -8 0
v -6 -8 0
v -5 -9 0
v -6 -9 0
v -6 -8 0
v -5 -8 0
v -4 -9 0
v -5 -9 0
v -5 -8 0
v -4 -8 0
v -3 -9 0
v -4 -9 0
v -4 -8 0
v -3 -8 0
v 0 -9 0
v -1 -9 0
v -1 -8 0
v 0 -8 0
v -19 -10 0
v -20 -10 0
v -20 -9 0
v -19 -9 0
v -16 -10 0
v -17 -10 0
v -17 -9 0
v -16 -9 0
v -15 -10 0
v -16 -10 0
v -16 -9 0
v -15 -9 0
v -14 -10 0
v -15 -10 0
v -15 -9 0
v -14 -9 0
v -13 -10 0
v -14 -10 0
v -14 -9 0
v -13 -9 0
v -12 -10 0
v -13 -10 0
v -13 -9 0
v -12 -9 0
v -11 -10 0
v -12 -10 0
v -12 -9 0
v -11 -9 0
v -10 -10 0
v -11 -10 0
v -11 -9 0
v -10 -9 0
v -9 -10 0
v -10 -10 0
v -10 -9 0
v -9 -9 0
v -8 -10 0
v -9 -10 0
v -9 -9 0
v -8 -9 0
v -7 -10 0
v -8 -10 0
v -8 -9 0
v -7 -9 0
v -6 -10 0
v -7 -10 0
v -7 -9 0
v -6 -9 0
v -5 -10 0
v -6 -10 0
v -6 -9 0
v -5 -9 0
v -4 -10 0
v -5 -10 0
v -5 -9 0
v -4 -9 0
v -3 -10 0
v -4 -10 0
v -4 -9 0
v -3 -9 0
v 0 -10 0
v -1 -10 0
v -1 -9 0
v 0 -9 0
v -19 -11 0
v -20 -11 0
v -20 -10 0
v -19 -10 0
v -15 -11 0
v -16 -11 0
v -16 -10 0
v -15 -10 0
v -14 -11 0
v -15 -11 0
v -15 -10 0
v -14 -10 0
v -13 -11 0
v -14 -11 0
v -14 -10 0
v -13 -10 0
v -12 -11 0
v -13 -11 0
v -13 -10 0
v -12 -10 0
v -11 -11 0
v -12 -11 0
v -12 -10 0
v -11 -10 0
v -10 -11 0
v -11 -11 0
v -11 -10 0
v -10 -10 0
v -9 -11 0
v -10 -11 0
v -10 -10 0
v -9 -10 0
v -8 -11 0
v -9 -11 0
v -9 -10 0
v -8 -10 0
v -7 -11 0
v -8 -11 0
v -8 -10 0
v -7 -10 0
v -6 -11 0
v -7 -11 0
v -7 -10 0
v -6 -10 0
v -5 -11 0
v -6 -11 0
v -6 -10 0
v -5 -10 0
v -4 -11 0
v -5 -11 0
v -5 -10 0
v -4 -10 0
v -3 -11 0
v -4 -11 0
v -4 -10 0
v -3 -10 0
v 0 -11 0
v -1 -11 0
v -1 -10 0
v 0 -10 0
v -19 -12 0
v -20 -12 0
v -20 -11 0
v -19 -11 0
v -14 -12 0
v -15 -12 0
v -15 -11 0
v -14 -11 0
v -13 -12 0
v -14 -12 0
v -14 -11 0
v -13 -11 0
v -12 -12 0
v -13 -12 0
v -13 -11 0
v -12 -11 0
v -11 -12 0
v -12 -12 0
v -12 -11 0
v -11 -11 0
v -10 -12 0
v -11 -12 0
v -11 -11 0
v -10 -11 0
v -9 -12 0
v -10 -12 0
v -10 -11 0
v -9 -11 0
v -8 -12 0
v -9 -12 0
v -9 -11 0
v -8 -11 0
v -7 -12 0
v -8 -12 0
v -8 -11 0
v -7 -11 0
v -6 -12 0
v -7 -12 0
v -7 -11 0
v -6 -11 0
v -5 -12 0
v -6 -12 0
v -6 -11 0
v -5 -11 0
v -4 -12 0
v -5 -12 0
v -5 -11 0
v -4 -11 0
v 0 -12 0
v -1 -12 0
v -1 -11 0
v 0 -11 0
v -19 -13 0
v -20 -13 0
v -20 -12 0
v -19 -12 0
v 0 -13 0
v -1 -13 0
v -1 -12 0
v 0 -12 0
v -19 -14 0
v -20 -14 0
v -20 -13 0
v -19 -13 0
v 0 -14 0
v -1 -14 0
v -1 -13 0
v 0 -13 0
v -19 -15 0
v -20 -15 0
v -20 -14 0
v -19 -14 0
v -18 -15 0
v -19 -15 0
v -19 -14 0
v -18 -14 0
v -17 -15 0
v -18 -15 0
v -18 -14 0
v -17 -14 0
v -16 -15 0
v -17 -15 0
v -17 -14 0
v -16 -14 0
v -15 -15 0
v -16 -15 0
v -16 -14 0
v -15 -14 0
v -14 -15 0
v -15 -15 0
v -15 -14 0
v -14 -14 0
v -13 -15 0
v -14 -15 0
v -14 -14 0
v -13 -14 0
v -12 -15 0
v -13 -15 0
v -13 -14 0
v -12 -14 0
v -11 -15 0
v -12 -15 0
v -12 -14 0
v -11 -14 0
v -10 -15 0
v -11 -15 0
v -11 -14 0
v -10 -14 0
v -9 -15 0
v -10 -15 0
v -10 -14 0
v -9 -14 0
v -8 -15 0
v -9 -15 0
v -9 -14 0
v -8 -14 0
v -7 -15 0
v -8 -15 0
v -8 -14 0
v -7 -14 0
v -6 -15 0
v -7 -15 0
v -7 -14 0
v -6 -14 0
v -5 -15 0
v -6 -15 0
v -6 -14 0
v -5 -14 0
v -4 -15 0
v -5 -15 0
v -5 -14 0
v -4 -14 0
v -3 -15 0
v -4 -15 0
v -4 -14 0
v -3 -14 0
v -2 -15 0
v -3 -15 0
v -3 -14 0
v -2 -14 0
v -1 -15 0
v -2 -15 0
v -2 -14 0
v -1 -14 0
v 0 -15 0
v -1 -15 0
v -1 -14 0
v 0 -14 0

# Texture cooridinates (Count = 120)
vt 0.03512397 0.9372624
vt 0.05165289 0.9372624
vt 0.05165289 0.9676806
vt 0.03512397 0.9676806
vt 0.07024793 0.9372624
vt 0.08677686 0.9372624
vt 0.08677686 0.9676806
vt 0.07024793 0.9676806
vt 0.2107438 0.6463878
vt 0.2272727 0.6463878
vt 0.2272727 0.6768061
vt 0.2107438 0.6768061
vt 0.1756198 0.6463878
vt 0.1921488 0.6463878
vt 0.1921488 0.6768061
vt 0.1756198 0.6768061
vt 0.2107438 0.5494297
vt 0.2272727 0.5494297
vt 0.2272727 0.5798479
vt 0.2107438 0.5798479
vt 0.1756198 0.5494297
vt 0.1921488 0.5494297
vt 0.1921488 0.5798479
vt 0.1756198 0.5798479
vt 0.2107438 0.743346
vt 0.2272727 0.743346
vt 0.2272727 0.7737643
vt 0.2107438 0.7737643
vt 0.1756198 0.743346
vt 0.1921488 0.743346
vt 0.1921488 0.7737643
vt 0.1756198 0.7737643
vt 0.2107438 0.5817491
vt 0.2272727 0.5817491
vt 0.2272727 0.6121673
vt 0.2107438 0.6121673
vt 0.1756198 0.5817491
vt 0.1921488 0.5817491
vt 0.1921488 0.6121673
vt 0.1756198 0.6121673
vt 0.2107438 0.4847909
vt 0.2272727 0.4847909
vt 0.2272727 0.5152091
vt 0.2107438 0.5152091
vt 0.1756198 0.4847909
vt 0.1921488 0.4847909
vt 0.1921488 0.5152091
vt 0.1756198 0.5152091
vt 0.2107438 0.6787072
vt 0.2272727 0.6787072
vt 0.2272727 0.7091255
vt 0.2107438 0.7091255
vt 0.1756198 0.6787072
vt 0.1921488 0.6787072
vt 0.1921488 0.7091255
vt 0.1756198 0.7091255
vt 0.1580579 0.6787072
vt 0.1745868 0.6787072
vt 0.1745868 0.7091255
vt 0.1580579 0.7091255
vt 0.1404959 0.6787072
vt 0.1570248 0.6787072
vt 0.1570248 0.7091255
vt 0.1404959 0.7091255
vt 0.1229339 0.6787072
vt 0.1394628 0.6787072
vt 0.1394628 0.7091255
vt 0.1229339 0.7091255
vt 0.08780992 0.6463878
vt 0.1043388 0.6463878
vt 0.1043388 0.6768061
vt 0.08780992 0.6768061
vt 0.1404959 0.6463878
vt 0.1570248 0.6463878
vt 0.1570248 0.6768061
vt 0.1404959 0.6768061
vt 0.1053719 0.6463878
vt 0.1219008 0.6463878
vt 0.1219008 0.6768061
vt 0.1053719 0.6768061
vt 0.1580579 0.6463878
vt 0.1745868 0.6463878
vt 0.1745868 0.6768061
vt 0.1580579 0.6768061
vt 0.1229339 0.6463878
vt 0.1394628 0.6463878
vt 0.1394628 0.6768061
vt 0.1229339 0.6768061
vt 0.1580579 0.6140684
vt 0.1745868 0.6140684
vt 0.1745868 0.6444867
vt 0.1580579 0.6444867
vt 0.08780992 0.6787072
vt 0.1043388 0.6787072
vt 0.1043388 0.7091255
vt 0.08780992 0.7091255
vt 0.1053719 0.6787072
vt 0.1219008 0.6787072
vt 0.1219008 0.7091255
vt 0.1053719 0.7091255
vt 0.1229339 0.6140684
vt 0.1394628 0.6140684
vt 0.1394628 0.6444867
vt 0.1229339 0.6444867
vt 0.1404959 0.6140684
vt 0.1570248 0.6140684
vt 0.1570248 0.6444867
vt 0.1404959 0.6444867
vt 0.01756198 0.904943
vt 0.03409091 0.904943
vt 0.03409091 0.9353612
vt 0.01756198 0.9353612
vt 0.05268595 0.9695817
vt 0.06921487 0.9695817
vt 0.06921487 1
vt 0.05268595 1
vt 0 0.904943
vt 0.01652892 0.904943
vt 0.01652892 0.9353612
vt 0 0.9353612

# Normal
vn 0 0 -1

# Mesh description
g homeScreenCTF_mesh_0002

# Faces
f 1/1/1 2/2/1 3/3/1 4/4/1
f 5/5/1 6/6/1 7/7/1 8/8/1
f 9/1/1 10/2/1 11/3/1 12/4/1
f 13/5/1 14/6/1 15/7/1 16/8/1
f 17/1/1 18/2/1 19/3/1 20/4/1
f 21/9/1 22/10/1 23/11/1 24/12/1
f 25/13/1 26/14/1 27/15/1 28/16/1
f 29/17/1 30/18/1 31/19/1 32/20/1
f 33/21/1 34/22/1 35/23/1 36/24/1
f 37/25/1 38/26/1 39/27/1 40/28/1
f 41/29/1 42/30/1 43/31/1 44/32/1
f 45/5/1 46/6/1 47/7/1 48/8/1
f 49/1/1 50/2/1 51/3/1 52/4/1
f 53/33/1 54/34/1 55/35/1 56/36/1
f 57/37/1 58/38/1 59/39/1 60/40/1
f 61/41/1 62/42/1 63/43/1 64/44/1
f 65/45/1 66/46/1 67/47/1 68/48/1
f 69/49/1 70/50/1 71/51/1 72/52/1
f 73/53/1 74/54/1 75/55/1 76/56/1
f 77/5/1 78/6/1 79/7/1 80/8/1
f 81/1/1 82/2/1 83/3/1 84/4/1
f 85/57/1 86/58/1 87/59/1 88/60/1
f 89/61/1 90/62/1 91/63/1 92/64/1
f 93/61/1 94/62/1 95/63/1 96/64/1
f 97/61/1 98/62/1 99/63/1 100/64/1
f 101/61/1 102/62/1 103/63/1 104/64/1
f 105/65/1 106/66/1 107/67/1 108/68/1
f 109/5/1 110/6/1 111/7/1 112/8/1
f 113/1/1 114/2/1 115/3/1 116/4/1
f 117/57/1 118/58/1 119/59/1 120/60/1
f 121/69/1 122/70/1 123/71/1 124/72/1
f 125/73/1 126/74/1 127/75/1 128/76/1
f 129/73/1 130/74/1 131/75/1 132/76/1
f 133/73/1 134/74/1 135/75/1 136/76/1
f 137/73/1 138/74/1 139/75/1 140/76/1
f 141/77/1 142/78/1 143/79/1 144/80/1
f 145/61/1 146/62/1 147/63/1 148/64/1
f 149/61/1 150/62/1 151/63/1 152/64/1
f 153/61/1 154/62/1 155/63/1 156/64/1
f 157/61/1 158/62/1 159/63/1 160/64/1
f 161/61/1 162/62/1 163/63/1 164/64/1
f 165/61/1 166/62/1 167/63/1 168/64/1
f 169/65/1 170/66/1 171/67/1 172/68/1
f 173/5/1 174/6/1 175/7/1 176/8/1
f 177/1/1 178/2/1 179/3/1 180/4/1
f 181/81/1 182/82/1 183/83/1 184/84/1
f 185/73/1 186/74/1 187/75/1 188/76/1
f 189/73/1 190/74/1 191/75/1 192/76/1
f 193/73/1 194/74/1 195/75/1 196/76/1
f 197/73/1 198/74/1 199/75/1 200/76/1
f 201/73/1 202/74/1 203/75/1 204/76/1
f 205/73/1 206/74/1 207/75/1 208/76/1
f 209/73/1 210/74/1 211/75/1 212/76/1
f 213/73/1 214/74/1 215/75/1 216/76/1
f 217/73/1 218/74/1 219/75/1 220/76/1
f 221/73/1 222/74/1 223/75/1 224/76/1
f 225/73/1 226/74/1 227/75/1 228/76/1
f 229/73/1 230/74/1 231/75/1 232/76/1
f 233/85/1 234/86/1 235/87/1 236/88/1
f 237/5/1 238/6/1 239/7/1 240/8/1
f 241/1/1 242/2/1 243/3/1 244/4/1
f 245/81/1 246/82/1 247/83/1 248/84/1
f 249/73/1 250/74/1 251/75/1 252/76/1
f 253/73/1 254/74/1 255/75/1 256/76/1
f 257/73/1 258/74/1 259/75/1 260/76/1
f 261/73/1 262/74/1 263/75/1 264/76/1
f 265/73/1 266/74/1 267/75/1 268/76/1
f 269/73/1 270/74/1 271/75/1 272/76/1
f 273/73/1 274/74/1 275/75/1 276/76/1
f 277/73/1 278/74/1 279/75/1 280/76/1
f 281/73/1 282/74/1 283/75/1 284/76/1
f 285/73/1 286/74/1 287/75/1 288/76/1
f 289/73/1 290/74/1 291/75/1 292/76/1
f 293/73/1 294/74/1 295/75/1 296/76/1
f 297/85/1 298/86/1 299/87/1 300/88/1
f 301/5/1 302/6/1 303/7/1 304/8/1
f 305/1/1 306/2/1 307/3/1 308/4/1
f 309/81/1 310/82/1 311/83/1 312/84/1
f 313/73/1 314/74/1 315/75/1 316/76/1
f 317/73/1 318/74/1 319/75/1 320/76/1
f 321/73/1 322/74/1 323/75/1 324/76/1
f 325/73/1 326/74/1 327/75/1 328/76/1
f 329/73/1 330/74/1 331/75/1 332/76/1
f 333/73/1 334/74/1 335/75/1 336/76/1
f 337/73/1 338/74/1 339/75/1 340/76/1
f 341/73/1 342/74/1 343/75/1 344/76/1
f 345/73/1 346/74/1 347/75/1 348/76/1
f 349/73/1 350/74/1 351/75/1 352/76/1
f 353/73/1 354/74/1 355/75/1 356/76/1
f 357/73/1 358/74/1 359/75/1 360/76/1
f 361/85/1 362/86/1 363/87/1 364/88/1
f 365/5/1 366/6/1 367/7/1 368/8/1
f 369/1/1 370/2/1 371/3/1 372/4/1
f 373/89/1 374/90/1 375/91/1 376/92/1
f 377/93/1 378/94/1 379/95/1 380/96/1
f 381/73/1 382/74/1 383/75/1 384/76/1
f 385/73/1 386/74/1 387/75/1 388/76/1
f 389/73/1 390/74/1 391/75/1 392/76/1
f 393/73/1 394/74/1 395/75/1 396/76/1
f 397/73/1 398/74/1 399/75/1 400/76/1
f 401/73/1 402/74/1 403/75/1 404/76/1
f 405/73/1 406/74/1 407/75/1 408/76/1
f 409/73/1 410/74/1 411/75/1 412/76/1
f 413/73/1 414/74/1 415/75/1 416/76/1
f 417/73/1 418/74/1 419/75/1 420/76/1
f 421/73/1 422/74/1 423/75/1 424/76/1
f 425/85/1 426/86/1 427/87/1 428/88/1
f 429/5/1 430/6/1 431/7/1 432/8/1
f 433/1/1 434/2/1 435/3/1 436/4/1
f 437/89/1 438/90/1 439/91/1 440/92/1
f 441/93/1 442/94/1 443/95/1 444/96/1
f 445/73/1 446/74/1 447/75/1 448/76/1
f 449/73/1 450/74/1 451/75/1 452/76/1
f 453/73/1 454/74/1 455/75/1 456/76/1
f 457/73/1 458/74/1 459/75/1 460/76/1
f 461/73/1 462/74/1 463/75/1 464/76/1
f 465/73/1 466/74/1 467/75/1 468/76/1
f 469/73/1 470/74/1 471/75/1 472/76/1
f 473/73/1 474/74/1 475/75/1 476/76/1
f 477/73/1 478/74/1 479/75/1 480/76/1
f 481/97/1 482/98/1 483/99/1 484/100/1
f 485/101/1 486/102/1 487/103/1 488/104/1
f 489/5/1 490/6/1 491/7/1 492/8/1
f 493/1/1 494/2/1 495/3/1 496/4/1
f 497/89/1 498/90/1 499/91/1 500/92/1
f 501/105/1 502/106/1 503/107/1 504/108/1
f 505/105/1 506/106/1 507/107/1 508/108/1
f 509/105/1 510/106/1 511/107/1 512/108/1
f 513/105/1 514/106/1 515/107/1 516/108/1
f 517/105/1 518/106/1 519/107/1 520/108/1
f 521/105/1 522/106/1 523/107/1 524/108/1
f 525/105/1 526/106/1 527/107/1 528/108/1
f 529/105/1 530/106/1 531/107/1 532/108/1
f 533/105/1 534/106/1 535/107/1 536/108/1
f 537/101/1 538/102/1 539/103/1 540/104/1
f 541/5/1 542/6/1 543/7/1 544/8/1
f 545/1/1 546/2/1 547/3/1 548/4/1
f 549/5/1 550/6/1 551/7/1 552/8/1
f 553/1/1 554/2/1 555/3/1 556/4/1
f 557/5/1 558/6/1 559/7/1 560/8/1
f 561/109/1 562/110/1 563/111/1 564/112/1
f 565/113/1 566/114/1 567/115/1 568/116/1
f 569/113/1 570/114/1 571/115/1 572/116/1
f 573/113/1 574/114/1 575/115/1 576/116/1
f 577/113/1 578/114/1 579/115/1 580/116/1
f 581/113/1 582/114/1 583/115/1 584/116/1
f 585/113/1 586/114/1 587/115/1 588/116/1
f 589/113/1 590/114/1 591/115/1 592/116/1
f 593/113/1 594/114/1 595/115/1 596/116/1
f 597/113/1 598/114/1 599/115/1 600/116/1
f 601/113/1 602/114/1 603/115/1 604/116/1
f 605/113/1 606/114/1 607/115/1 608/116/1
f 609/113/1 610/114/1 611/115/1 612/116/1
f 613/113/1 614/114/1 615/115/1 616/116/1
f 617/113/1 618/114/1 619/115/1 620/116/1
f 621/113/1 622/114/1 623/115/1 624/116/1
f 625/113/1 626/114/1 627/115/1 628/116/1
f 629/113/1 630/114/1 631/115/1 632/116/1
f 633/113/1 634/114/1 635/115/1 636/116/1
f 637/117/1 638/118/1 639/119/1 640/120/1

