# Tiled2Unity generated file. Do not modify by hand.
# Wavefront file for 'homeScreenCTF_mesh_0002.obj'

# Vertices (Count = 672)
v -19 -1 0
v -20 -1 0
v -20 0 0
v -19 0 0
v -6 -1 0
v -7 -1 0
v -7 0 0
v -6 0 0
v -3 -1 0
v -4 -1 0
v -4 0 0
v -3 0 0
v 0 -1 0
v -1 -1 0
v -1 0 0
v 0 0 0
v -19 -2 0
v -20 -2 0
v -20 -1 0
v -19 -1 0
v -6 -2 0
v -7 -2 0
v -7 -1 0
v -6 -1 0
v -5 -2 0
v -6 -2 0
v -6 -1 0
v -5 -1 0
v -4 -2 0
v -5 -2 0
v -5 -1 0
v -4 -1 0
v -3 -2 0
v -4 -2 0
v -4 -1 0
v -3 -1 0
v 0 -2 0
v -1 -2 0
v -1 -1 0
v 0 -1 0
v -19 -3 0
v -20 -3 0
v -20 -2 0
v -19 -2 0
v -15 -3 0
v -16 -3 0
v -16 -2 0
v -15 -2 0
v -14 -3 0
v -15 -3 0
v -15 -2 0
v -14 -2 0
v -10 -3 0
v -11 -3 0
v -11 -2 0
v -10 -2 0
v -9 -3 0
v -10 -3 0
v -10 -2 0
v -9 -2 0
v -6 -3 0
v -7 -3 0
v -7 -2 0
v -6 -2 0
v -5 -3 0
v -6 -3 0
v -6 -2 0
v -5 -2 0
v -4 -3 0
v -5 -3 0
v -5 -2 0
v -4 -2 0
v -3 -3 0
v -4 -3 0
v -4 -2 0
v -3 -2 0
v 0 -3 0
v -1 -3 0
v -1 -2 0
v 0 -2 0
v -19 -4 0
v -20 -4 0
v -20 -3 0
v -19 -3 0
v -15 -4 0
v -16 -4 0
v -16 -3 0
v -15 -3 0
v -14 -4 0
v -15 -4 0
v -15 -3 0
v -14 -3 0
v -10 -4 0
v -11 -4 0
v -11 -3 0
v -10 -3 0
v -9 -4 0
v -10 -4 0
v -10 -3 0
v -9 -3 0
v -5 -4 0
v -6 -4 0
v -6 -3 0
v -5 -3 0
v -4 -4 0
v -5 -4 0
v -5 -3 0
v -4 -3 0
v 0 -4 0
v -1 -4 0
v -1 -3 0
v 0 -3 0
v -19 -5 0
v -20 -5 0
v -20 -4 0
v -19 -4 0
v -15 -5 0
v -16 -5 0
v -16 -4 0
v -15 -4 0
v -14 -5 0
v -15 -5 0
v -15 -4 0
v -14 -4 0
v -13 -5 0
v -14 -5 0
v -14 -4 0
v -13 -4 0
v -12 -5 0
v -13 -5 0
v -13 -4 0
v -12 -4 0
v -11 -5 0
v -12 -5 0
v -12 -4 0
v -11 -4 0
v -10 -5 0
v -11 -5 0
v -11 -4 0
v -10 -4 0
v 0 -5 0
v -1 -5 0
v -1 -4 0
v 0 -4 0
v -19 -6 0
v -20 -6 0
v -20 -5 0
v -19 -5 0
v -16 -6 0
v -17 -6 0
v -17 -5 0
v -16 -5 0
v -15 -6 0
v -16 -6 0
v -16 -5 0
v -15 -5 0
v -14 -6 0
v -15 -6 0
v -15 -5 0
v -14 -5 0
v -13 -6 0
v -14 -6 0
v -14 -5 0
v -13 -5 0
v -12 -6 0
v -13 -6 0
v -13 -5 0
v -12 -5 0
v -11 -6 0
v -12 -6 0
v -12 -5 0
v -11 -5 0
v -10 -6 0
v -11 -6 0
v -11 -5 0
v -10 -5 0
v -9 -6 0
v -10 -6 0
v -10 -5 0
v -9 -5 0
v -8 -6 0
v -9 -6 0
v -9 -5 0
v -8 -5 0
v -7 -6 0
v -8 -6 0
v -8 -5 0
v -7 -5 0
v -6 -6 0
v -7 -6 0
v -7 -5 0
v -6 -5 0
v -5 -6 0
v -6 -6 0
v -6 -5 0
v -5 -5 0
v -4 -6 0
v -5 -6 0
v -5 -5 0
v -4 -5 0
v -3 -6 0
v -4 -6 0
v -4 -5 0
v -3 -5 0
v 0 -6 0
v -1 -6 0
v -1 -5 0
v 0 -5 0
v -19 -7 0
v -20 -7 0
v -20 -6 0
v -19 -6 0
v -16 -7 0
v -17 -7 0
v -17 -6 0
v -16 -6 0
v -15 -7 0
v -16 -7 0
v -16 -6 0
v -15 -6 0
v -14 -7 0
v -15 -7 0
v -15 -6 0
v -14 -6 0
v -13 -7 0
v -14 -7 0
v -14 -6 0
v -13 -6 0
v -12 -7 0
v -13 -7 0
v -13 -6 0
v -12 -6 0
v -11 -7 0
v -12 -7 0
v -12 -6 0
v -11 -6 0
v -10 -7 0
v -11 -7 0
v -11 -6 0
v -10 -6 0
v -9 -7 0
v -10 -7 0
v -10 -6 0
v -9 -6 0
v -8 -7 0
v -9 -7 0
v -9 -6 0
v -8 -6 0
v -7 -7 0
v -8 -7 0
v -8 -6 0
v -7 -6 0
v -6 -7 0
v -7 -7 0
v -7 -6 0
v -6 -6 0
v -5 -7 0
v -6 -7 0
v -6 -6 0
v -5 -6 0
v -4 -7 0
v -5 -7 0
v -5 -6 0
v -4 -6 0
v -3 -7 0
v -4 -7 0
v -4 -6 0
v -3 -6 0
v 0 -7 0
v -1 -7 0
v -1 -6 0
v 0 -6 0
v -19 -8 0
v -20 -8 0
v -20 -7 0
v -19 -7 0
v -16 -8 0
v -17 -8 0
v -17 -7 0
v -16 -7 0
v -15 -8 0
v -16 -8 0
v -16 -7 0
v -15 -7 0
v -14 -8 0
v -15 -8 0
v -15 -7 0
v -14 -7 0
v -13 -8 0
v -14 -8 0
v -14 -7 0
v -13 -7 0
v -12 -8 0
v -13 -8 0
v -13 -7 0
v -12 -7 0
v -11 -8 0
v -12 -8 0
v -12 -7 0
v -11 -7 0
v -10 -8 0
v -11 -8 0
v -11 -7 0
v -10 -7 0
v -9 -8 0
v -10 -8 0
v -10 -7 0
v -9 -7 0
v -8 -8 0
v -9 -8 0
v -9 -7 0
v -8 -7 0
v -7 -8 0
v -8 -8 0
v -8 -7 0
v -7 -7 0
v -6 -8 0
v -7 -8 0
v -7 -7 0
v -6 -7 0
v -5 -8 0
v -6 -8 0
v -6 -7 0
v -5 -7 0
v -4 -8 0
v -5 -8 0
v -5 -7 0
v -4 -7 0
v -3 -8 0
v -4 -8 0
v -4 -7 0
v -3 -7 0
v 0 -8 0
v -1 -8 0
v -1 -7 0
v 0 -7 0
v -19 -9 0
v -20 -9 0
v -20 -8 0
v -19 -8 0
v -16 -9 0
v -17 -9 0
v -17 -8 0
v -16 -8 0
v -15 -9 0
v -16 -9 0
v -16 -8 0
v -15 -8 0
v -14 -9 0
v -15 -9 0
v -15 -8 0
v -14 -8 0
v -13 -9 0
v -14 -9 0
v -14 -8 0
v -13 -8 0
v -12 -9 0
v -13 -9 0
v -13 -8 0
v -12 -8 0
v -11 -9 0
v -12 -9 0
v -12 -8 0
v -11 -8 0
v -10 -9 0
v -11 -9 0
v -11 -8 0
v -10 -8 0
v -9 -9 0
v -10 -9 0
v -10 -8 0
v -9 -8 0
v -8 -9 0
v -9 -9 0
v -9 -8 0
v -8 -8 0
v -7 -9 0
v -8 -9 0
v -8 -8 0
v -7 -8 0
v -6 -9 0
v -7 -9 0
v -7 -8 0
v -6 -8 0
v -5 -9 0
v -6 -9 0
v -6 -8 0
v -5 -8 0
v -4 -9 0
v -5 -9 0
v -5 -8 0
v -4 -8 0
v -3 -9 0
v -4 -9 0
v -4 -8 0
v -3 -8 0
v 0 -9 0
v -1 -9 0
v -1 -8 0
v 0 -8 0
v -19 -10 0
v -20 -10 0
v -20 -9 0
v -19 -9 0
v -16 -10 0
v -17 -10 0
v -17 -9 0
v -16 -9 0
v -15 -10 0
v -16 -10 0
v -16 -9 0
v -15 -9 0
v -14 -10 0
v -15 -10 0
v -15 -9 0
v -14 -9 0
v -13 -10 0
v -14 -10 0
v -14 -9 0
v -13 -9 0
v -12 -10 0
v -13 -10 0
v -13 -9 0
v -12 -9 0
v -11 -10 0
v -12 -10 0
v -12 -9 0
v -11 -9 0
v -10 -10 0
v -11 -10 0
v -11 -9 0
v -10 -9 0
v -9 -10 0
v -10 -10 0
v -10 -9 0
v -9 -9 0
v -8 -10 0
v -9 -10 0
v -9 -9 0
v -8 -9 0
v -7 -10 0
v -8 -10 0
v -8 -9 0
v -7 -9 0
v -6 -10 0
v -7 -10 0
v -7 -9 0
v -6 -9 0
v -5 -10 0
v -6 -10 0
v -6 -9 0
v -5 -9 0
v -4 -10 0
v -5 -10 0
v -5 -9 0
v -4 -9 0
v -3 -10 0
v -4 -10 0
v -4 -9 0
v -3 -9 0
v 0 -10 0
v -1 -10 0
v -1 -9 0
v 0 -9 0
v -19 -11 0
v -20 -11 0
v -20 -10 0
v -19 -10 0
v -15 -11 0
v -16 -11 0
v -16 -10 0
v -15 -10 0
v -14 -11 0
v -15 -11 0
v -15 -10 0
v -14 -10 0
v -13 -11 0
v -14 -11 0
v -14 -10 0
v -13 -10 0
v -12 -11 0
v -13 -11 0
v -13 -10 0
v -12 -10 0
v -11 -11 0
v -12 -11 0
v -12 -10 0
v -11 -10 0
v -10 -11 0
v -11 -11 0
v -11 -10 0
v -10 -10 0
v -9 -11 0
v -10 -11 0
v -10 -10 0
v -9 -10 0
v -8 -11 0
v -9 -11 0
v -9 -10 0
v -8 -10 0
v -7 -11 0
v -8 -11 0
v -8 -10 0
v -7 -10 0
v -6 -11 0
v -7 -11 0
v -7 -10 0
v -6 -10 0
v -5 -11 0
v -6 -11 0
v -6 -10 0
v -5 -10 0
v -4 -11 0
v -5 -11 0
v -5 -10 0
v -4 -10 0
v -3 -11 0
v -4 -11 0
v -4 -10 0
v -3 -10 0
v 0 -11 0
v -1 -11 0
v -1 -10 0
v 0 -10 0
v -19 -12 0
v -20 -12 0
v -20 -11 0
v -19 -11 0
v -14 -12 0
v -15 -12 0
v -15 -11 0
v -14 -11 0
v -13 -12 0
v -14 -12 0
v -14 -11 0
v -13 -11 0
v -12 -12 0
v -13 -12 0
v -13 -11 0
v -12 -11 0
v -11 -12 0
v -12 -12 0
v -12 -11 0
v -11 -11 0
v -10 -12 0
v -11 -12 0
v -11 -11 0
v -10 -11 0
v -9 -12 0
v -10 -12 0
v -10 -11 0
v -9 -11 0
v -8 -12 0
v -9 -12 0
v -9 -11 0
v -8 -11 0
v -7 -12 0
v -8 -12 0
v -8 -11 0
v -7 -11 0
v -6 -12 0
v -7 -12 0
v -7 -11 0
v -6 -11 0
v -5 -12 0
v -6 -12 0
v -6 -11 0
v -5 -11 0
v -4 -12 0
v -5 -12 0
v -5 -11 0
v -4 -11 0
v 0 -12 0
v -1 -12 0
v -1 -11 0
v 0 -11 0
v -19 -13 0
v -20 -13 0
v -20 -12 0
v -19 -12 0
v 0 -13 0
v -1 -13 0
v -1 -12 0
v 0 -12 0
v -19 -14 0
v -20 -14 0
v -20 -13 0
v -19 -13 0
v 0 -14 0
v -1 -14 0
v -1 -13 0
v 0 -13 0
v -19 -15 0
v -20 -15 0
v -20 -14 0
v -19 -14 0
v -18 -15 0
v -19 -15 0
v -19 -14 0
v -18 -14 0
v -17 -15 0
v -18 -15 0
v -18 -14 0
v -17 -14 0
v -16 -15 0
v -17 -15 0
v -17 -14 0
v -16 -14 0
v -15 -15 0
v -16 -15 0
v -16 -14 0
v -15 -14 0
v -14 -15 0
v -15 -15 0
v -15 -14 0
v -14 -14 0
v -13 -15 0
v -14 -15 0
v -14 -14 0
v -13 -14 0
v -12 -15 0
v -13 -15 0
v -13 -14 0
v -12 -14 0
v -11 -15 0
v -12 -15 0
v -12 -14 0
v -11 -14 0
v -10 -15 0
v -11 -15 0
v -11 -14 0
v -10 -14 0
v -9 -15 0
v -10 -15 0
v -10 -14 0
v -9 -14 0
v -8 -15 0
v -9 -15 0
v -9 -14 0
v -8 -14 0
v -7 -15 0
v -8 -15 0
v -8 -14 0
v -7 -14 0
v -6 -15 0
v -7 -15 0
v -7 -14 0
v -6 -14 0
v -5 -15 0
v -6 -15 0
v -6 -14 0
v -5 -14 0
v -4 -15 0
v -5 -15 0
v -5 -14 0
v -4 -14 0
v -3 -15 0
v -4 -15 0
v -4 -14 0
v -3 -14 0
v -2 -15 0
v -3 -15 0
v -3 -14 0
v -2 -14 0
v -1 -15 0
v -2 -15 0
v -2 -14 0
v -1 -14 0
v 0 -15 0
v -1 -15 0
v -1 -14 0
v 0 -14 0

# Texture cooridinates (Count = 144)
vt 0.03512397 0.9372624
vt 0.05165289 0.9372624
vt 0.05165289 0.9676806
vt 0.03512397 0.9676806
vt 0.3688017 0.2908745
vt 0.3853306 0.2908745
vt 0.3853306 0.3212928
vt 0.3688017 0.3212928
vt 0.3512397 0.2908745
vt 0.3677686 0.2908745
vt 0.3677686 0.3212928
vt 0.3512397 0.3212928
vt 0.07024793 0.9372624
vt 0.08677686 0.9372624
vt 0.08677686 0.9676806
vt 0.07024793 0.9676806
vt 0.3336777 0.2585551
vt 0.3502066 0.2585551
vt 0.3502066 0.2889734
vt 0.3336777 0.2889734
vt 0.3161157 0.2585551
vt 0.3326446 0.2585551
vt 0.3326446 0.2889734
vt 0.3161157 0.2889734
vt 0.2985537 0.2585551
vt 0.3150826 0.2585551
vt 0.3150826 0.2889734
vt 0.2985537 0.2889734
vt 0.2107438 0.6463878
vt 0.2272727 0.6463878
vt 0.2272727 0.6768061
vt 0.2107438 0.6768061
vt 0.1756198 0.6463878
vt 0.1921488 0.6463878
vt 0.1921488 0.6768061
vt 0.1756198 0.6768061
vt 0.2107438 0.5494297
vt 0.2272727 0.5494297
vt 0.2272727 0.5798479
vt 0.2107438 0.5798479
vt 0.1756198 0.5494297
vt 0.1921488 0.5494297
vt 0.1921488 0.5798479
vt 0.1756198 0.5798479
vt 0.3336777 0.2262357
vt 0.3502066 0.2262357
vt 0.3502066 0.256654
vt 0.3336777 0.256654
vt 0.3161157 0.2262357
vt 0.3326446 0.2262357
vt 0.3326446 0.256654
vt 0.3161157 0.256654
vt 0.2985537 0.2262357
vt 0.3150826 0.2262357
vt 0.3150826 0.256654
vt 0.2985537 0.256654
vt 0.2107438 0.5817491
vt 0.2272727 0.5817491
vt 0.2272727 0.6121673
vt 0.2107438 0.6121673
vt 0.1756198 0.5817491
vt 0.1921488 0.5817491
vt 0.1921488 0.6121673
vt 0.1756198 0.6121673
vt 0.2107438 0.4847909
vt 0.2272727 0.4847909
vt 0.2272727 0.5152091
vt 0.2107438 0.5152091
vt 0.1756198 0.4847909
vt 0.1921488 0.4847909
vt 0.1921488 0.5152091
vt 0.1756198 0.5152091
vt 0.2107438 0.6787072
vt 0.2272727 0.6787072
vt 0.2272727 0.7091255
vt 0.2107438 0.7091255
vt 0.1756198 0.6787072
vt 0.1921488 0.6787072
vt 0.1921488 0.7091255
vt 0.1756198 0.7091255
vt 0.1580579 0.6787072
vt 0.1745868 0.6787072
vt 0.1745868 0.7091255
vt 0.1580579 0.7091255
vt 0.1404959 0.6787072
vt 0.1570248 0.6787072
vt 0.1570248 0.7091255
vt 0.1404959 0.7091255
vt 0.1229339 0.6787072
vt 0.1394628 0.6787072
vt 0.1394628 0.7091255
vt 0.1229339 0.7091255
vt 0.08780992 0.6463878
vt 0.1043388 0.6463878
vt 0.1043388 0.6768061
vt 0.08780992 0.6768061
vt 0.1404959 0.6463878
vt 0.1570248 0.6463878
vt 0.1570248 0.6768061
vt 0.1404959 0.6768061
vt 0.1053719 0.6463878
vt 0.1219008 0.6463878
vt 0.1219008 0.6768061
vt 0.1053719 0.6768061
vt 0.1580579 0.6463878
vt 0.1745868 0.6463878
vt 0.1745868 0.6768061
vt 0.1580579 0.6768061
vt 0.1229339 0.6463878
vt 0.1394628 0.6463878
vt 0.1394628 0.6768061
vt 0.1229339 0.6768061
vt 0.1580579 0.6140684
vt 0.1745868 0.6140684
vt 0.1745868 0.6444867
vt 0.1580579 0.6444867
vt 0.08780992 0.6787072
vt 0.1043388 0.6787072
vt 0.1043388 0.7091255
vt 0.08780992 0.7091255
vt 0.1053719 0.6787072
vt 0.1219008 0.6787072
vt 0.1219008 0.7091255
vt 0.1053719 0.7091255
vt 0.1229339 0.6140684
vt 0.1394628 0.6140684
vt 0.1394628 0.6444867
vt 0.1229339 0.6444867
vt 0.1404959 0.6140684
vt 0.1570248 0.6140684
vt 0.1570248 0.6444867
vt 0.1404959 0.6444867
vt 0.01756198 0.904943
vt 0.03409091 0.904943
vt 0.03409091 0.9353612
vt 0.01756198 0.9353612
vt 0.05268595 0.9695817
vt 0.06921487 0.9695817
vt 0.06921487 1
vt 0.05268595 1
vt 0 0.904943
vt 0.01652892 0.904943
vt 0.01652892 0.9353612
vt 0 0.9353612

# Normal
vn 0 0 -1

# Mesh description
g homeScreenCTF_mesh_0002

# Faces
f 1/1/1 2/2/1 3/3/1 4/4/1
f 5/5/1 6/6/1 7/7/1 8/8/1
f 9/9/1 10/10/1 11/11/1 12/12/1
f 13/13/1 14/14/1 15/15/1 16/16/1
f 17/1/1 18/2/1 19/3/1 20/4/1
f 21/17/1 22/18/1 23/19/1 24/20/1
f 25/21/1 26/22/1 27/23/1 28/24/1
f 29/21/1 30/22/1 31/23/1 32/24/1
f 33/25/1 34/26/1 35/27/1 36/28/1
f 37/13/1 38/14/1 39/15/1 40/16/1
f 41/1/1 42/2/1 43/3/1 44/4/1
f 45/29/1 46/30/1 47/31/1 48/32/1
f 49/33/1 50/34/1 51/35/1 52/36/1
f 53/37/1 54/38/1 55/39/1 56/40/1
f 57/41/1 58/42/1 59/43/1 60/44/1
f 61/45/1 62/46/1 63/47/1 64/48/1
f 65/49/1 66/50/1 67/51/1 68/52/1
f 69/49/1 70/50/1 71/51/1 72/52/1
f 73/53/1 74/54/1 75/55/1 76/56/1
f 77/13/1 78/14/1 79/15/1 80/16/1
f 81/1/1 82/2/1 83/3/1 84/4/1
f 85/57/1 86/58/1 87/59/1 88/60/1
f 89/61/1 90/62/1 91/63/1 92/64/1
f 93/65/1 94/66/1 95/67/1 96/68/1
f 97/69/1 98/70/1 99/71/1 100/72/1
f 101/73/1 102/74/1 103/75/1 104/76/1
f 105/77/1 106/78/1 107/79/1 108/80/1
f 109/13/1 110/14/1 111/15/1 112/16/1
f 113/1/1 114/2/1 115/3/1 116/4/1
f 117/81/1 118/82/1 119/83/1 120/84/1
f 121/85/1 122/86/1 123/87/1 124/88/1
f 125/85/1 126/86/1 127/87/1 128/88/1
f 129/85/1 130/86/1 131/87/1 132/88/1
f 133/85/1 134/86/1 135/87/1 136/88/1
f 137/89/1 138/90/1 139/91/1 140/92/1
f 141/13/1 142/14/1 143/15/1 144/16/1
f 145/1/1 146/2/1 147/3/1 148/4/1
f 149/81/1 150/82/1 151/83/1 152/84/1
f 153/93/1 154/94/1 155/95/1 156/96/1
f 157/97/1 158/98/1 159/99/1 160/100/1
f 161/97/1 162/98/1 163/99/1 164/100/1
f 165/97/1 166/98/1 167/99/1 168/100/1
f 169/97/1 170/98/1 171/99/1 172/100/1
f 173/101/1 174/102/1 175/103/1 176/104/1
f 177/85/1 178/86/1 179/87/1 180/88/1
f 181/85/1 182/86/1 183/87/1 184/88/1
f 185/85/1 186/86/1 187/87/1 188/88/1
f 189/85/1 190/86/1 191/87/1 192/88/1
f 193/85/1 194/86/1 195/87/1 196/88/1
f 197/85/1 198/86/1 199/87/1 200/88/1
f 201/89/1 202/90/1 203/91/1 204/92/1
f 205/13/1 206/14/1 207/15/1 208/16/1
f 209/1/1 210/2/1 211/3/1 212/4/1
f 213/105/1 214/106/1 215/107/1 216/108/1
f 217/97/1 218/98/1 219/99/1 220/100/1
f 221/97/1 222/98/1 223/99/1 224/100/1
f 225/97/1 226/98/1 227/99/1 228/100/1
f 229/97/1 230/98/1 231/99/1 232/100/1
f 233/97/1 234/98/1 235/99/1 236/100/1
f 237/97/1 238/98/1 239/99/1 240/100/1
f 241/97/1 242/98/1 243/99/1 244/100/1
f 245/97/1 246/98/1 247/99/1 248/100/1
f 249/97/1 250/98/1 251/99/1 252/100/1
f 253/97/1 254/98/1 255/99/1 256/100/1
f 257/97/1 258/98/1 259/99/1 260/100/1
f 261/97/1 262/98/1 263/99/1 264/100/1
f 265/109/1 266/110/1 267/111/1 268/112/1
f 269/13/1 270/14/1 271/15/1 272/16/1
f 273/1/1 274/2/1 275/3/1 276/4/1
f 277/105/1 278/106/1 279/107/1 280/108/1
f 281/97/1 282/98/1 283/99/1 284/100/1
f 285/97/1 286/98/1 287/99/1 288/100/1
f 289/97/1 290/98/1 291/99/1 292/100/1
f 293/97/1 294/98/1 295/99/1 296/100/1
f 297/97/1 298/98/1 299/99/1 300/100/1
f 301/97/1 302/98/1 303/99/1 304/100/1
f 305/97/1 306/98/1 307/99/1 308/100/1
f 309/97/1 310/98/1 311/99/1 312/100/1
f 313/97/1 314/98/1 315/99/1 316/100/1
f 317/97/1 318/98/1 319/99/1 320/100/1
f 321/97/1 322/98/1 323/99/1 324/100/1
f 325/97/1 326/98/1 327/99/1 328/100/1
f 329/109/1 330/110/1 331/111/1 332/112/1
f 333/13/1 334/14/1 335/15/1 336/16/1
f 337/1/1 338/2/1 339/3/1 340/4/1
f 341/105/1 342/106/1 343/107/1 344/108/1
f 345/97/1 346/98/1 347/99/1 348/100/1
f 349/97/1 350/98/1 351/99/1 352/100/1
f 353/97/1 354/98/1 355/99/1 356/100/1
f 357/97/1 358/98/1 359/99/1 360/100/1
f 361/97/1 362/98/1 363/99/1 364/100/1
f 365/97/1 366/98/1 367/99/1 368/100/1
f 369/97/1 370/98/1 371/99/1 372/100/1
f 373/97/1 374/98/1 375/99/1 376/100/1
f 377/97/1 378/98/1 379/99/1 380/100/1
f 381/97/1 382/98/1 383/99/1 384/100/1
f 385/97/1 386/98/1 387/99/1 388/100/1
f 389/97/1 390/98/1 391/99/1 392/100/1
f 393/109/1 394/110/1 395/111/1 396/112/1
f 397/13/1 398/14/1 399/15/1 400/16/1
f 401/1/1 402/2/1 403/3/1 404/4/1
f 405/113/1 406/114/1 407/115/1 408/116/1
f 409/117/1 410/118/1 411/119/1 412/120/1
f 413/97/1 414/98/1 415/99/1 416/100/1
f 417/97/1 418/98/1 419/99/1 420/100/1
f 421/97/1 422/98/1 423/99/1 424/100/1
f 425/97/1 426/98/1 427/99/1 428/100/1
f 429/97/1 430/98/1 431/99/1 432/100/1
f 433/97/1 434/98/1 435/99/1 436/100/1
f 437/97/1 438/98/1 439/99/1 440/100/1
f 441/97/1 442/98/1 443/99/1 444/100/1
f 445/97/1 446/98/1 447/99/1 448/100/1
f 449/97/1 450/98/1 451/99/1 452/100/1
f 453/97/1 454/98/1 455/99/1 456/100/1
f 457/109/1 458/110/1 459/111/1 460/112/1
f 461/13/1 462/14/1 463/15/1 464/16/1
f 465/1/1 466/2/1 467/3/1 468/4/1
f 469/113/1 470/114/1 471/115/1 472/116/1
f 473/117/1 474/118/1 475/119/1 476/120/1
f 477/97/1 478/98/1 479/99/1 480/100/1
f 481/97/1 482/98/1 483/99/1 484/100/1
f 485/97/1 486/98/1 487/99/1 488/100/1
f 489/97/1 490/98/1 491/99/1 492/100/1
f 493/97/1 494/98/1 495/99/1 496/100/1
f 497/97/1 498/98/1 499/99/1 500/100/1
f 501/97/1 502/98/1 503/99/1 504/100/1
f 505/97/1 506/98/1 507/99/1 508/100/1
f 509/97/1 510/98/1 511/99/1 512/100/1
f 513/121/1 514/122/1 515/123/1 516/124/1
f 517/125/1 518/126/1 519/127/1 520/128/1
f 521/13/1 522/14/1 523/15/1 524/16/1
f 525/1/1 526/2/1 527/3/1 528/4/1
f 529/113/1 530/114/1 531/115/1 532/116/1
f 533/129/1 534/130/1 535/131/1 536/132/1
f 537/129/1 538/130/1 539/131/1 540/132/1
f 541/129/1 542/130/1 543/131/1 544/132/1
f 545/129/1 546/130/1 547/131/1 548/132/1
f 549/129/1 550/130/1 551/131/1 552/132/1
f 553/129/1 554/130/1 555/131/1 556/132/1
f 557/129/1 558/130/1 559/131/1 560/132/1
f 561/129/1 562/130/1 563/131/1 564/132/1
f 565/129/1 566/130/1 567/131/1 568/132/1
f 569/125/1 570/126/1 571/127/1 572/128/1
f 573/13/1 574/14/1 575/15/1 576/16/1
f 577/1/1 578/2/1 579/3/1 580/4/1
f 581/13/1 582/14/1 583/15/1 584/16/1
f 585/1/1 586/2/1 587/3/1 588/4/1
f 589/13/1 590/14/1 591/15/1 592/16/1
f 593/133/1 594/134/1 595/135/1 596/136/1
f 597/137/1 598/138/1 599/139/1 600/140/1
f 601/137/1 602/138/1 603/139/1 604/140/1
f 605/137/1 606/138/1 607/139/1 608/140/1
f 609/137/1 610/138/1 611/139/1 612/140/1
f 613/137/1 614/138/1 615/139/1 616/140/1
f 617/137/1 618/138/1 619/139/1 620/140/1
f 621/137/1 622/138/1 623/139/1 624/140/1
f 625/137/1 626/138/1 627/139/1 628/140/1
f 629/137/1 630/138/1 631/139/1 632/140/1
f 633/137/1 634/138/1 635/139/1 636/140/1
f 637/137/1 638/138/1 639/139/1 640/140/1
f 641/137/1 642/138/1 643/139/1 644/140/1
f 645/137/1 646/138/1 647/139/1 648/140/1
f 649/137/1 650/138/1 651/139/1 652/140/1
f 653/137/1 654/138/1 655/139/1 656/140/1
f 657/137/1 658/138/1 659/139/1 660/140/1
f 661/137/1 662/138/1 663/139/1 664/140/1
f 665/137/1 666/138/1 667/139/1 668/140/1
f 669/141/1 670/142/1 671/143/1 672/144/1

