# Tiled2Unity generated file. Do not modify by hand.
# Wavefront file for 'room1CTF_mesh_0003.obj'

# Vertices (Count = 72)
v -6 -5 0
v -7 -5 0
v -7 -4 0
v -6 -4 0
v -5 -5 0
v -6 -5 0
v -6 -4 0
v -5 -4 0
v -2 -5 0
v -3 -5 0
v -3 -4 0
v -2 -4 0
v -1 -5 0
v -2 -5 0
v -2 -4 0
v -1 -4 0
v -4 -7 0
v -5 -7 0
v -5 -6 0
v -4 -6 0
v -3 -7 0
v -4 -7 0
v -4 -6 0
v -3 -6 0
v -2 -7 0
v -3 -7 0
v -3 -6 0
v -2 -6 0
v -1 -7 0
v -2 -7 0
v -2 -6 0
v -1 -6 0
v -8 -8 0
v -9 -8 0
v -9 -7 0
v -8 -7 0
v -7 -8 0
v -8 -8 0
v -8 -7 0
v -7 -7 0
v -9 -10 0
v -10 -10 0
v -10 -9 0
v -9 -9 0
v -8 -10 0
v -9 -10 0
v -9 -9 0
v -8 -9 0
v -7 -10 0
v -8 -10 0
v -8 -9 0
v -7 -9 0
v -6 -10 0
v -7 -10 0
v -7 -9 0
v -6 -9 0
v -3 -10 0
v -4 -10 0
v -4 -9 0
v -3 -9 0
v -2 -10 0
v -3 -10 0
v -3 -9 0
v -2 -9 0
v -1 -10 0
v -2 -10 0
v -2 -9 0
v -1 -9 0
v 0 -10 0
v -1 -10 0
v -1 -9 0
v 0 -9 0

# Texture cooridinates (Count = 52)
vt 0.7902893 0.4847909
vt 0.8068182 0.4847909
vt 0.8068182 0.5152091
vt 0.7902893 0.5152091
vt 0.8956612 0.4847909
vt 0.9121901 0.4847909
vt 0.9121901 0.5152091
vt 0.8956612 0.5152091
vt 0.2107438 0.7756654
vt 0.2272727 0.7756654
vt 0.2272727 0.8060837
vt 0.2107438 0.8060837
vt 0.2107438 0.8079848
vt 0.2272727 0.8079848
vt 0.2272727 0.838403
vt 0.2107438 0.838403
vt 0.3863636 0.8079848
vt 0.4028926 0.8079848
vt 0.4028926 0.838403
vt 0.3863636 0.838403
vt 0.3512397 0.7756654
vt 0.3677686 0.7756654
vt 0.3677686 0.8060837
vt 0.3512397 0.8060837
vt 0.3336777 0.7756654
vt 0.3502066 0.7756654
vt 0.3502066 0.8060837
vt 0.3336777 0.8060837
vt 0.3688017 0.8079848
vt 0.3853306 0.8079848
vt 0.3853306 0.838403
vt 0.3688017 0.838403
vt 0.4566116 0.743346
vt 0.4731405 0.743346
vt 0.4731405 0.7737643
vt 0.4566116 0.7737643
vt 0.2634298 0.9695817
vt 0.2799587 0.9695817
vt 0.2799587 1
vt 0.2634298 1
vt 0.2985537 0.2262357
vt 0.3150826 0.2262357
vt 0.3150826 0.256654
vt 0.2985537 0.256654
vt 0.6146694 0.5817491
vt 0.6311983 0.5817491
vt 0.6311983 0.6121673
vt 0.6146694 0.6121673
vt 0.3336777 0.2262357
vt 0.3502066 0.2262357
vt 0.3502066 0.256654
vt 0.3336777 0.256654

# Normal
vn 0 0 -1

# Mesh description
g room1CTF_mesh_0003

# Faces
f 1/1/1 2/2/1 3/3/1 4/4/1
f 5/5/1 6/6/1 7/7/1 8/8/1
f 9/9/1 10/10/1 11/11/1 12/12/1
f 13/13/1 14/14/1 15/15/1 16/16/1
f 17/17/1 18/18/1 19/19/1 20/20/1
f 21/21/1 22/22/1 23/23/1 24/24/1
f 25/25/1 26/26/1 27/27/1 28/28/1
f 29/29/1 30/30/1 31/31/1 32/32/1
f 33/33/1 34/34/1 35/35/1 36/36/1
f 37/37/1 38/38/1 39/39/1 40/40/1
f 41/41/1 42/42/1 43/43/1 44/44/1
f 45/45/1 46/46/1 47/47/1 48/48/1
f 49/45/1 50/46/1 51/47/1 52/48/1
f 53/45/1 54/46/1 55/47/1 56/48/1
f 57/45/1 58/46/1 59/47/1 60/48/1
f 61/45/1 62/46/1 63/47/1 64/48/1
f 65/45/1 66/46/1 67/47/1 68/48/1
f 69/49/1 70/50/1 71/51/1 72/52/1

